<?xml version="1.0" encoding="UTF-8"?>
<svg width="21px" height="27px" viewBox="0 0 21 27" version="1.1" xmlns="http://www.w3.org/2000/svg" xmlns:xlink="http://www.w3.org/1999/xlink">
    <title>Shape</title>
    <g id="iPhone-App" stroke="none" stroke-width="1" fill="none" fill-rule="evenodd">
        <g id="Packaged" transform="translate(-251, -941)" fill="#FFFFFF" fill-rule="nonzero">
            <g id="User1" transform="translate(159.2155, 232.7513)">
                <path d="M107.91543,725.882354 C107.894762,725.880119 104.901873,725.968428 104.456878,722.761192 C104.951334,722.416185 105.407044,721.968295 105.80852,721.424835 C106.589534,720.367572 107.092775,719.041269 107.272033,717.606651 C107.33363,717.550944 107.384615,717.481628 107.418943,717.399921 C107.743282,716.627286 107.907762,715.802295 107.907762,714.94775 C107.907762,711.667897 105.433653,708.9995 102.39237,708.9995 C101.596985,708.9995 100.825315,709.182718 100.096504,709.544534 C99.8184769,709.565761 99.5460361,709.614663 99.284767,709.690124 C98.0357031,710.051025 97.0192676,710.977121 96.4226398,712.297939 C95.84343,713.580366 95.729274,715.090039 96.1012967,716.548931 C96.1799059,716.857121 96.2798432,717.15998 96.3983664,717.449331 C96.4304601,717.527585 96.478296,717.594362 96.5357294,717.649307 C96.8260961,719.888502 97.8915354,721.743792 99.3442826,722.756723 C98.8979162,725.969393 95.906094,725.880221 95.8854768,725.882455 C93.7332701,725.955479 92.0045274,727.727893 92.0045274,729.897569 L92.0045274,734.414095 C92.0045274,734.737418 92.2666089,734.9995 92.5899325,734.9995 L97.7305591,734.9995 L106.070195,734.9995 L111.210923,734.9995 C111.534196,734.9995 111.796379,734.737418 111.796379,734.414095 L111.796379,729.897569 C111.796379,727.727792 110.067738,725.955326 107.91543,725.882354 Z M99.6098172,710.814977 C99.8234535,710.753227 100.049074,710.716614 100.280433,710.706204 C100.366304,710.702344 100.450245,710.679645 100.526366,710.63963 C101.119033,710.32824 101.746891,710.170361 102.392421,710.170361 C104.787971,710.170361 106.736952,712.313478 106.736952,714.94775 C106.736952,715.026816 106.734717,715.105476 106.731264,715.183832 C106.266617,714.711973 105.621036,714.418712 104.908119,714.418712 L100.918194,714.418712 C100.680792,714.418712 100.455476,714.344165 100.266519,714.203095 C100.105187,714.082693 99.9804688,713.920854 99.9059729,713.735096 C99.7905981,713.447776 99.5061221,713.268062 99.1964586,713.287511 C98.885678,713.307316 98.6241551,713.523136 98.5456474,713.824725 C98.3144408,714.713192 97.8533987,715.531581 97.2208687,716.19524 C96.6323152,713.77303 97.6945045,711.368339 99.6098172,710.814977 Z M99.1004822,720.94018 C98.3387142,720.009564 97.8398402,718.752883 97.6817077,717.37707 C98.4204211,716.718692 99.0044043,715.899389 99.3846028,714.990609 C99.4422902,715.043828 99.5028721,715.094152 99.5661454,715.141429 C99.9589884,715.434589 100.42648,715.589624 100.918244,715.589624 L104.90817,715.589624 C105.472704,715.589624 105.959289,715.928233 106.176429,716.412837 C106.176429,716.417001 106.175769,716.420962 106.175769,716.425126 C106.175769,719.729862 104.258273,722.41847 101.901317,722.41847 C100.875537,722.41847 99.8807854,721.893494 99.1004822,720.94018 Z M100.445624,723.331617 C100.909713,723.49955 101.397872,723.589382 101.901317,723.589382 C102.400749,723.589382 102.888705,723.502444 103.355841,723.334714 C103.570188,724.451442 104.191089,725.424765 105.058381,726.094822 L101.984344,730.472564 C101.964285,730.501153 101.936406,730.515626 101.901469,730.515626 C101.866582,730.515626 101.838703,730.501103 101.818696,730.472614 L98.743897,726.093857 C99.6112391,725.423038 100.231937,724.449005 100.445624,723.331617 Z M110.625468,733.828588 L106.070195,733.828588 L97.7305591,733.828588 L93.1753376,733.828588 L93.1753376,729.897467 C93.1753376,728.327212 94.452839,727.049711 96.0230937,727.049711 C96.0444218,727.049711 96.9864629,727.026809 97.730813,726.688555 L100.860405,731.145414 C101.098264,731.484226 101.48745,731.686487 101.901418,731.686487 C101.901418,731.686487 101.901418,731.686487 101.901469,731.686487 C102.315386,731.686487 102.704624,731.484226 102.942483,731.145414 L106.071516,726.689266 C106.920424,727.049762 107.756434,727.049762 107.777762,727.049762 C109.348017,727.049762 110.625468,728.327263 110.625468,729.897518 L110.625468,733.828588 Z" id="Shape"></path>
            </g>
        </g>
    </g>
</svg>
