<?xml version="1.0" encoding="UTF-8"?>
<svg width="37px" height="21px" viewBox="0 0 37 21" version="1.1" xmlns="http://www.w3.org/2000/svg" xmlns:xlink="http://www.w3.org/1999/xlink">
    <title>Combined Shape</title>
    <g id="iPhone-App" stroke="none" stroke-width="1" fill="none" fill-rule="evenodd">
        <g id="Packaged" transform="translate(-222, -593)" fill="#FFFFFF" fill-rule="nonzero">
            <g id="User1" transform="translate(159.2155, 232.7513)">
                <g id="Group" transform="translate(32.0045, 350)">
                    <g id="Group-2" transform="translate(30.8674, 6.5)">
                        <path d="M16.3995289,5.92302824 C18.5913803,3.81096356 21.9117445,3.39306735 24.5585919,4.89614044 L30.486142,8.22320042 C30.6397834,8.1223907 31.4334158,8.09219087 32.3346775,8.08775739 L32.833749,8.08762493 C33.9243319,8.09170653 35.0300499,8.12038809 35.2721663,8.09964912 C35.6504002,8.09969785 35.9569935,8.40633067 35.9569935,8.78456457 L35.9569935,19.0579433 C35.9569935,19.2396095 35.8849584,19.4138617 35.7565424,19.5423604 C35.6281264,19.6708592 35.4539207,19.7430767 35.2722545,19.7431235 L31.1628501,19.7431235 C30.3666021,19.7409262 29.6434817,19.2783727 29.3076391,18.5564133 L26.8141974,20.1314276 C25.2887916,21.1027861 23.3433607,21.1206265 21.8003974,20.1774063 L20.4827228,19.3784707 C20.4826346,19.3790002 19.1908175,21.3808842 19.1905527,21.3813255 C16.9193269,24.7772212 17.9403018,24.5823631 14.4379755,22.4378656 L0.3190626,13.5199328 C0.00407800663,13.3207786 -0.0939452199,12.9063756 0.0984352808,12.5872088 L1.5268648,10.2160829 C1.88543383,9.62102892 2.41967737,8.73398369 2.97498601,7.81193235 L3.4525176,7.01902353 C4.00724227,6.09794709 4.53885793,5.21528889 4.89275518,4.62803412 C4.98778844,4.4718864 5.14102634,4.35994972 5.31867965,4.31690633 C5.49633296,4.27386295 5.68381149,4.30324788 5.83977589,4.39858171 L8.1720714,5.84166088 L13.2442052,8.97986387 Z M17.6106846,21.3035764 C16.9919014,21.1464908 16.33533,21.2966027 15.8462838,21.7069714 L16.9148261,22.3818263 Z M7.97889012,7.33318981 C7.09090929,8.32671875 5.58490721,8.70849227 4.32530172,8.22452418 L3.00824487,10.4112057 C4.03131028,11.3651112 4.37728339,12.8422763 3.88422358,14.15128 L14.6443944,20.9473957 C15.5586741,19.9430119 17.1103901,19.5838306 18.3758202,20.117837 L19.3110153,18.6680507 L15.3421063,16.2614479 C13.724202,15.3551991 13.7318799,12.7861264 15.3542849,11.8966453 Z M23.8832076,6.08743971 C21.7654888,4.88229797 19.1070178,5.2158283 17.3526389,6.90676133 L14.4455651,9.72320144 L22.619366,14.7806856 C23.044559,15.0380253 23.0493245,15.7120859 22.6051576,15.9448036 C22.2587727,16.1759328 21.8310205,15.9275947 21.5367919,15.7221465 L17.2466495,13.0725889 C16.4025294,12.5143135 15.2651515,13.3771428 15.5169314,14.3417255 C15.5853328,14.6541924 15.7790257,14.9248711 16.0527027,15.0904464 L22.5110821,19.0065813 C23.6101794,19.6783393 24.9959072,19.6654637 26.0823324,18.9733989 L29.108545,17.0623251 L29.108545,10.1522774 C29.1108759,9.80694101 29.2014013,9.46792658 29.3715328,9.16739709 Z M34.5873391,9.46939177 L31.1615263,9.46939177 C30.7843252,9.46973236 30.4786282,9.77542931 30.4782876,10.1526304 L30.4782876,17.6884654 C30.4788224,18.0664977 30.7851707,18.3728065 31.1632031,18.3732926 L34.5873391,18.3732926 L34.5873391,9.46939177 Z M11.3009198,11.5241381 C14.9205316,11.6386878 14.9214141,16.888206 11.3009198,17.0032852 C7.68130799,16.8887355 7.68042549,11.6388643 11.3009198,11.5241381 Z M32.0464184,15.8318424 C32.297051,15.5913586 32.6577326,15.5443209 33.0188554,15.8318424 C33.2470723,16.0728557 33.314496,16.433096 33.0188554,16.8043676 C32.6555263,17.0939189 32.2903439,17.0354086 32.0464184,16.8043676 C31.7829909,16.5337084 31.7829909,16.1025016 32.0464184,15.8318424 Z M11.3009198,12.8938808 C9.50060087,12.9256511 9.50060087,15.6015075 11.3009198,15.6334543 C13.1007975,15.6017722 13.1010622,12.9259159 11.3009198,12.8938808 Z M2.27029061,11.6362168 L1.61793975,12.7196734 L2.68577598,13.3942635 C2.82656661,12.7755282 2.67317107,12.1264644 2.27029061,11.6362168 Z M5.70837025,5.92823504 L5.05381312,7.01486871 C5.66172912,7.14902094 6.29736075,6.98998233 6.77047017,6.58535145 L5.70837025,5.92823504 Z" id="Combined-Shape" transform="translate(17.9785, 14) scale(-1, 1) translate(-17.9785, -14)"></path>
                    </g>
                </g>
            </g>
        </g>
    </g>
</svg>
