<?xml version="1.0" encoding="UTF-8"?>
<svg width="20px" height="20px" viewBox="0 0 20 20" version="1.1" xmlns="http://www.w3.org/2000/svg" xmlns:xlink="http://www.w3.org/1999/xlink">
    <title>Combined Shape</title>
    <g id="iPhone-App" stroke="none" stroke-width="1" fill="none" fill-rule="evenodd">
        <g id="Packaged" transform="translate(-407, -591)" fill="#FFFFFF" fill-rule="nonzero">
            <g id="User1" transform="translate(159.2155, 232.7513)">
                <g id="Group" transform="translate(212, 350)">
                    <g id="Group-3" transform="translate(36.3184, 6.5)">
                        <path d="M7.66940294,4.72672248 L7.66940294,10.1688686 L2.22725685,10.1688686 L2.22725685,4.72672248 L7.66940294,4.72672248 Z M6.55609931,5.8400261 L3.3405142,5.8400261 L3.3405142,9.05561122 L6.55609931,9.05561122 L6.55609931,5.8400261 Z M5.50499103,6.8911047 L5.50499103,8.00446408 L4.39170587,8.00446408 L4.39170587,6.8911047 L5.50499103,6.8911047 Z M3.89783402,2.5 L3.89783402,3.61328516 L1.11325735,3.61331293 L1.11328516,6.39672073 L2.38605328e-16,6.39672073 L-2.38605328e-16,2.5 L3.89783402,2.5 Z M1.11328516,17.6032793 L1.11325735,20.3867427 L3.89783402,20.3867148 L3.89783402,21.5 L2.38605328e-16,21.5 L-2.38605328e-16,17.6032793 L1.11328516,17.6032793 Z M7.66940294,13.8311314 L7.66940294,19.2732775 L2.22725685,19.2732775 L2.22725685,13.8311314 L7.66940294,13.8311314 Z M6.55609931,14.9444351 L3.3405142,14.9444351 L3.3405142,18.1600202 L6.55609931,18.1600202 L6.55609931,14.9444351 Z M5.50499103,15.9955396 L5.50499103,17.108899 L4.39170587,17.108899 L4.39170587,15.9955396 L5.50499103,15.9955396 Z M19.0016885,17.6032793 L19.0016885,21.5 L15.1038545,21.5 L15.1038545,20.3867148 L17.8883756,20.3867427 L17.8884033,17.6032793 L19.0016885,17.6032793 Z M16.774966,14.3877889 L16.774966,19.2732924 L12.0993539,19.2732924 L12.0993539,18.1600072 L13.458,18.16 L13.4583374,17.3318344 L14.5716225,17.3318344 L14.571,18.16 L15.6616717,18.160035 L15.6616808,14.3877889 L16.774966,14.3877889 Z M14.3616347,13.8311463 L14.3616347,14.9444314 L13.458,14.944 L13.4582668,15.7726043 L12.3449817,15.7726043 L12.344,14.944 L11.4416361,14.9444314 L11.4416361,13.8311463 L14.3616347,13.8311463 Z M16.7749623,4.72672248 L16.7749623,10.1688686 L11.3328162,10.1688686 L11.3328162,4.72672248 L16.7749623,4.72672248 Z M15.6616587,5.8400261 L12.4460736,5.8400261 L12.4460736,9.05561122 L15.6616587,9.05561122 L15.6616587,5.8400261 Z M14.6105355,6.8911047 L14.6105355,8.00446408 L13.4972504,8.00446408 L13.4972504,6.8911047 L14.6105355,6.8911047 Z M19.0016885,2.5 L19.0016885,6.39672073 L17.8884033,6.39672073 L17.8883756,3.61331293 L15.1038545,3.61328516 L15.1038545,2.5 L19.0016885,2.5 Z M4.45395335,11.4433574 L7.66945489,11.4433574 L7.66945489,12.5566426 L4.45395335,12.5566426 L4.45395335,11.4433574 Z M2.22724201,11.4433574 L3.34060139,11.4433574 L3.34060139,12.5566426 L2.22724201,12.5566426 L2.22724201,11.4433574 Z M8.78281056,11.4433574 L12.926124,11.4433574 L12.926124,12.5566426 L8.78281056,12.5566426 L8.78281056,11.4433574 Z M16.7749549,13.2744146 L16.7749549,11.4433574 L14.0394648,11.4433574 L14.0394648,12.5566426 L15.6616605,12.5566518 L15.6616697,13.2744146 L16.7749549,13.2744146 Z M10.0581789,6.95338929 L10.0581789,10.1688908 L8.94489375,10.1688908 L8.94489375,6.95338929 L10.0581789,6.95338929 Z M10.0581789,4.72667795 L10.0581789,5.84003733 L8.94489375,5.84003733 L8.94489375,4.72667795 L10.0581789,4.72667795 Z M10.0581789,13.8311092 L10.058,15.933 L10.8863517,15.9332921 L10.8863517,17.0465773 L10.058,17.046 L10.0581511,18.160035 L10.9860279,18.1600072 L10.9860279,19.2732924 L8.94489375,19.2732924 L8.94489375,13.8311092 L10.0581789,13.8311092 Z" id="Combined-Shape"></path>
                    </g>
                </g>
            </g>
        </g>
    </g>
</svg>
