<?xml version="1.0" encoding="UTF-8"?>
<svg width="74px" height="83px" viewBox="0 0 74 83" version="1.1" xmlns="http://www.w3.org/2000/svg" xmlns:xlink="http://www.w3.org/1999/xlink">
    <title>Combined Shape</title>
    <g id="iPhone-App" stroke="none" stroke-width="1" fill="none" fill-rule="evenodd">
        <g id="App-Store" transform="translate(-304, -361)" fill="#FFFFFF" fill-rule="nonzero">
            <g id="User2" transform="translate(247.0411, 228.9714)">
                <g id="Argon" transform="translate(26.4589, 106.0286)">
                    <path d="M74.5882212,26.8138898 L85.6229752,57.4868898 L102.92145,57.4874652 L102.92145,66.4833891 L88.8599752,66.4828898 L91.8719752,74.8548898 L102.92145,74.8557274 L102.92145,83.8516513 L95.1079752,83.8508898 L103.863025,108.18611 L90.8307551,108.18611 L82.4209752,83.8508898 L52.5789752,83.8508898 L44.1692449,108.18611 L31.1369752,108.18611 L39.8919752,83.8508898 L32.0785497,83.8516513 L32.0785497,74.8557274 L43.1279752,74.8548898 L46.1399752,66.4828898 L32.0785497,66.4833891 L32.0785497,57.4874652 L49.3759752,57.4868898 L60.4117788,26.8138898 L74.5882212,26.8138898 Z M76.4189752,66.4828898 L58.5809752,66.4828898 L55.6879752,74.8548898 L79.3119752,74.8548898 L76.4189752,66.4828898 Z M67.8181706,41.5943907 L67.1824502,41.5943907 L61.6899752,57.4868898 L73.3099752,57.4868898 L67.8181706,41.5943907 Z" id="Combined-Shape"></path>
                </g>
            </g>
        </g>
    </g>
</svg>
