<?xml version="1.0" encoding="UTF-8"?>
<svg width="24px" height="25px" viewBox="0 0 24 25" version="1.1" xmlns="http://www.w3.org/2000/svg" xmlns:xlink="http://www.w3.org/1999/xlink">
    <title>Combined Shape</title>
    <g id="iPhone-App" stroke="none" stroke-width="1" fill="none" fill-rule="evenodd">
        <g id="Packaged" transform="translate(-526, -289)" fill="#FFFFFF" fill-rule="nonzero">
            <g id="User1" transform="translate(159.2155, 232.7513)">
                <path d="M379.952752,57.0486973 C380.249525,57.0486973 380.502391,57.2640903 380.549621,57.5570939 L380.926871,59.8976973 L381.152206,59.9608402 C381.736004,60.1366461 382.299567,60.3702814 382.837353,60.659444 L383.041871,60.7746973 L384.964205,59.3857434 C385.177947,59.2311853 385.463274,59.2349589 385.671611,59.3850995 L385.745839,59.4482398 L387.800414,61.5028668 C388.010252,61.7127238 388.036734,62.043874 387.862908,62.2844042 L386.473871,64.2066973 L386.589246,64.4113397 C386.87842,64.9491988 387.112026,65.5126978 387.287835,66.0964529 L387.349871,66.3206973 L389.691609,66.6989503 C389.952041,66.7409294 390.151174,66.9453898 390.192211,67.1987395 L390.2,67.2958155 L390.2,70.2015274 C390.2,70.4982992 389.984595,70.7511661 389.69159,70.7983957 L387.349871,71.1756973 L387.287752,71.4010174 C387.111913,71.9848522 386.878288,72.5484304 386.589188,73.0861617 L386.473871,73.2896973 L387.862907,75.2130222 C388.017419,75.4268166 388.01367,75.7121941 387.863552,75.9204303 L387.80042,75.9946124 L385.745863,78.0491564 C385.536048,78.2590492 385.204864,78.2854742 384.96427,78.1116852 L383.041871,76.7216973 L382.837226,76.8379123 C382.299448,77.1270244 381.735902,77.3606366 381.152159,77.5364303 L380.926871,77.5986973 L380.549607,79.9403042 C380.507646,80.2007471 380.30319,80.3998737 380.049841,80.4409087 L379.952765,80.4486973 L377.047092,80.4486973 C376.750338,80.4486973 376.497452,80.2332972 376.450224,79.9402979 L376.071871,77.5986973 L375.847746,77.5365007 C375.264079,77.3607172 374.700561,77.1271085 374.162645,76.8379528 L373.956871,76.7216973 L372.03552,78.1117371 C371.821675,78.2661314 371.536251,78.2623845 371.328162,78.1122629 L371.254045,78.049129 L369.199483,75.994515 C368.989625,75.7846766 368.963119,75.4535361 369.136939,75.2129879 L370.525871,73.2906973 L370.410692,73.0861492 C370.121589,72.548391 369.887949,71.9848141 369.712093,71.4010145 L369.648871,71.1756973 L367.308249,70.7984056 C367.047818,70.7564266 366.848694,70.5519667 366.807659,70.2986165 L366.799871,70.2015403 L366.799871,67.2958285 C366.799871,66.9990558 367.015264,66.7461896 367.308274,66.6989592 L369.648871,66.3206973 L369.712081,66.0964306 C369.887922,65.5126187 370.121554,64.9490321 370.41066,64.4112438 L370.525871,64.2056973 L369.136947,62.284431 C368.982436,62.0706212 368.986209,61.7852445 369.136337,61.5770442 L369.199472,61.5028772 L371.25406,59.4481732 C371.463919,59.2383524 371.795105,59.2118511 372.035578,59.385647 L373.957871,60.7736973 L374.162524,60.6593769 C374.700325,60.3702472 375.263835,60.1366521 375.847642,59.9608321 L376.071871,59.8976973 L376.450227,57.5570777 C376.492203,57.2966436 376.696676,57.0975202 376.95002,57.0564858 L377.047092,57.0486973 L379.952752,57.0486973 Z M379.952752,57.4486973 L377.047092,57.4486973 C376.94668,57.4486973 376.861111,57.5215805 376.845133,57.6207102 L376.447724,60.0877601 L376.300221,60.2496144 C375.508161,60.4539117 374.752244,60.7672656 374.046301,61.1839669 L373.827505,61.1738464 L371.801295,59.7098565 C371.719966,59.6510777 371.607885,59.6600463 371.536893,59.731025 L369.482338,61.7856964 C369.411313,61.8567412 369.402346,61.9687682 369.46116,62.0501537 L370.925108,64.0762389 L370.935233,64.2950327 C370.518599,65.0009039 370.205164,65.7569902 370.000851,66.5490146 L369.838993,66.6965127 L367.371903,67.0938658 C367.27275,67.1098484 367.199871,67.1954072 367.199871,67.2958285 L367.199871,70.2015403 C367.199871,70.3019616 367.27275,70.3875204 367.371885,70.4034999 L369.838999,70.8009346 L370.000849,70.9484251 C370.205187,71.7404331 370.518634,72.4965154 370.935257,73.2023324 L370.925134,73.4211297 L369.461156,75.4472589 C369.402348,75.5286433 369.411315,75.6406685 369.482321,75.7116676 L371.536928,77.7663271 C371.607843,77.8372807 371.719926,77.846234 371.801316,77.7874717 L373.82753,76.3234585 L374.046312,76.3133283 C374.752486,76.7300836 375.50844,77.0434728 376.300219,77.2476891 L376.447724,77.4095452 L376.84513,79.8766645 C376.861111,79.9758069 376.946686,80.0486973 377.047092,80.0486973 L379.952765,80.0486973 C380.05318,80.0486973 380.138726,79.9758273 380.154699,79.8766844 L380.552134,77.4094793 L380.699642,77.2476235 C381.491542,77.0433924 382.24756,76.7299896 382.953428,76.3133367 L383.17222,76.3234555 L385.198508,77.7874432 C385.279956,77.8462758 385.392027,77.8373337 385.462995,77.7663393 L387.517539,75.7118084 C387.588562,75.6407457 387.597521,75.5286971 387.538695,75.4473017 L386.074746,73.4211129 L386.06463,73.2023135 C386.481248,72.4965606 386.794668,71.7404894 386.99898,70.9484216 L387.160833,70.8009216 L389.627954,70.40349 C389.727113,70.3875066 389.8,70.3019433 389.8,70.2015274 L389.8,67.2958155 C389.8,67.1953996 389.727113,67.1098363 389.627979,67.0938568 L387.160903,66.6964997 L386.999044,66.5489954 C386.794774,65.7570333 386.481409,65.0011414 386.064628,64.2950775 L386.074747,64.0762804 L387.538695,62.0501272 C387.597512,61.9687387 387.588552,61.8566971 387.517563,61.7857012 L385.463079,59.7311653 C385.391892,59.6600632 385.279885,59.6510939 385.19853,59.7099227 L383.172341,61.173923 L382.95353,61.1840366 C382.247666,60.7673067 381.491645,60.453883 380.699658,60.2496426 L380.552147,60.0877876 L380.154715,57.6207301 C380.138732,57.5215768 380.053174,57.4486973 379.952752,57.4486973 Z M379.778522,57.8578094 L379.805616,58.026001 L380.191031,60.4185137 C380.204329,60.5010264 380.266478,60.5671435 380.348015,60.5855246 C381.277008,60.7948906 382.157506,61.1599083 382.964708,61.6702531 C383.035317,61.7149017 383.126054,61.7120923 383.193822,61.6631594 L385.158823,60.2433487 L385.296915,60.1435701 L385.417381,60.2640415 L387.105044,61.9517882 L387.005272,62.0898734 L385.585528,64.0548014 C385.53657,64.1225779 385.533754,64.2132806 385.578407,64.2839092 C386.088785,65.0912813 386.453789,65.9717897 386.663122,66.9006337 C386.681489,66.9821376 386.747651,67.0443139 386.830154,67.0576119 L389.222679,67.4429773 L389.390875,67.4700686 L389.390875,70.0272965 L389.222683,70.0543908 L386.830176,70.4398051 C386.74766,70.4531053 386.681561,70.5152256 386.663177,70.5967757 C386.453582,71.5259569 386.088572,72.4064689 385.57841,73.2135063 C385.533753,73.2841544 385.536569,73.3748476 385.585514,73.4425996 L387.005273,75.4076008 L387.105045,75.5456891 L385.417364,77.2333696 L385.296903,77.3538315 L385.158815,77.2540622 L383.193682,75.8342403 C383.125895,75.7852544 383.035211,75.7824539 382.964616,75.8271246 C382.157559,76.3373646 381.277084,76.7023265 380.347999,76.9117414 C380.266495,76.9301084 380.204319,76.9962712 380.19102,77.0787765 L379.805603,79.4714052 L379.77851,79.6395982 L377.221349,79.6395982 L377.194255,79.4714059 L376.808843,77.0788623 C376.795536,76.9963482 376.733394,76.9302341 376.651856,76.9118514 C375.722987,76.7023859 374.842496,76.337395 374.035055,75.8270963 C373.964468,75.782444 373.873794,75.7852629 373.806049,75.8342481 L371.841048,77.2540589 L371.702956,77.3538366 L369.8948,75.5456206 L369.994573,75.4075341 L371.414337,73.4425782 C371.463289,73.3748342 371.4661,73.2841624 371.421436,73.2134964 C370.911209,72.4063416 370.546195,71.5258231 370.336707,70.5967668 C370.318312,70.5152263 370.252193,70.4530937 370.169687,70.439795 L367.777161,70.0543779 L367.60897,70.0272835 L367.60897,67.4700686 L367.777166,67.4429773 L370.169669,67.0576154 C370.252175,67.0443168 370.318307,66.9821686 370.336704,66.9006699 C370.546235,65.9715025 370.91125,65.09096 371.421443,64.2838483 C371.466098,64.2132167 371.463286,64.1225175 371.414334,64.0547732 L369.994575,62.0898755 L369.8948,61.9517908 L371.702951,60.14352 L371.841044,60.2432946 L373.806019,61.663025 C373.873824,61.7119902 373.964493,61.7148093 374.035155,61.6701557 C374.842401,61.1599117 375.722904,60.7949194 376.651883,60.5854755 C376.733415,60.5670956 376.795552,60.5009791 376.80885,60.4184628 L377.194242,58.0260023 L377.221335,57.8578094 L379.778522,57.8578094 Z M379.436871,58.2576973 L377.561871,58.2576973 L377.203757,60.4820908 C377.16937,60.695466 377.02446,60.8717538 376.827353,60.9488802 L376.739852,60.9756822 C375.855495,61.1750661 375.017517,61.5224304 374.248855,62.0082862 C374.040046,62.140239 373.772073,62.1319072 373.571799,61.9872797 L371.744871,60.6666973 L370.417871,61.9936973 L371.73855,63.8205003 C371.86256,63.9921156 371.886383,64.2136001 371.807538,64.4048528 L371.759548,64.4975889 C371.273764,65.2660852 370.926377,66.1041042 370.726896,66.9887033 C370.67252,67.2295964 370.477125,67.4132214 370.233299,67.452522 L368.008871,67.8106973 L368.008871,69.6856973 L370.233321,70.0448891 C370.446669,70.0792771 370.622942,70.2241609 370.700092,70.4212627 L370.726906,70.5087621 C370.926338,71.3932234 371.273724,72.2312154 371.759554,72.9997761 C371.891538,73.2085953 371.883226,73.4766406 371.738555,73.6768491 L370.417871,75.5026973 L371.744871,76.8296973 L373.571727,75.5100673 C373.743325,75.3859886 373.964865,75.3621379 374.156102,75.441005 L374.248824,75.4890099 C375.017604,75.9748741 375.855583,76.3222426 376.739838,76.5216474 C376.980768,76.5759649 377.164422,76.7713564 377.203746,77.0152136 L377.561871,79.2386973 L379.436871,79.2386973 L379.796114,77.0151437 C379.830505,76.8017799 379.975446,76.6254494 380.172556,76.5483264 L380.260055,76.5215289 C381.144499,76.3221759 381.982428,75.9748495 382.750797,75.4890694 C382.959507,75.3570031 383.227665,75.3652845 383.427954,75.5100235 L385.253871,76.8296973 L386.580871,75.5026973 L385.26128,73.6768479 C385.137301,73.5052298 385.113475,73.2837775 385.192313,73.0925198 L385.240298,72.9997777 C385.726061,72.2313368 386.073446,71.393342 386.272975,70.5087849 C386.327292,70.2678398 386.522688,70.0842043 386.766541,70.0448992 L388.990871,69.6856973 L388.990871,67.8106973 L386.766524,67.4525185 C386.55316,67.4181279 386.37683,67.2731864 386.299706,67.0760734 L386.272908,66.9885724 C386.073635,66.1043694 385.726267,65.2664029 385.240304,64.4976527 C385.108314,64.2888816 385.116637,64.0208142 385.26129,63.8205585 L386.580871,61.9936973 L385.253871,60.6666973 L383.428036,61.9874183 C383.256369,62.1113721 383.034886,62.1351781 382.84366,62.0563302 L382.750939,62.0083402 C381.98237,61.5224204 381.144422,61.1750423 380.260062,60.975735 C380.019104,60.9214157 379.835425,60.7260092 379.796124,60.4821429 L379.436871,58.2576973 Z M378.499929,62.3266377 C382.041253,62.3266377 384.922008,65.2073468 384.922008,68.7486003 C384.922008,72.2898802 382.041253,75.1706147 378.499929,75.1706147 C374.958686,75.1706147 372.077966,72.2898704 372.077966,68.7486003 C372.077966,65.2073566 374.958685,62.3266377 378.499929,62.3266377 Z M378.499929,62.7266377 C375.179599,62.7266377 372.477966,65.4282705 372.477966,68.7486003 C372.477966,72.0689572 375.1796,74.7706147 378.499929,74.7706147 C381.820339,74.7706147 384.522008,72.0689656 384.522008,68.7486003 C384.522008,65.4282621 381.820341,62.7266377 378.499929,62.7266377 Z M378.499929,63.1357368 C381.595114,63.1357368 384.112909,65.653473 384.112909,68.7486003 C384.112909,71.8437477 381.595107,74.3615285 378.499929,74.3615285 C375.404814,74.3615285 372.887065,71.8437465 372.887065,68.7486003 C372.887065,65.6534698 375.404798,63.1357368 378.499929,63.1357368 Z M378.499929,63.5357368 C375.625712,63.5357368 373.287065,65.8743837 373.287065,68.7486003 C373.287065,71.6228338 375.625729,73.9615285 378.499929,73.9615285 C381.374194,73.9615285 383.712909,71.622833 383.712909,68.7486003 C383.712909,65.874389 381.374203,63.5357368 378.499929,63.5357368 Z M379.845318,64.3071104 C381.330699,64.3071104 383.02637,65.7430192 383.02637,67.6093987 C383.02637,67.9432868 382.755709,68.2139353 382.42182,68.2139353 C382.087928,68.2139353 381.817271,67.9432839 381.817271,67.6093857 C381.817271,66.4589891 380.683986,65.5161966 379.845318,65.5161966 C379.51143,65.5161966 379.240769,65.2455357 379.240769,64.911647 C379.240769,64.5777588 379.511429,64.3071104 379.845318,64.3071104 Z M379.845318,64.7071104 C379.732339,64.7071104 379.640769,64.7986767 379.640769,64.911647 C379.640769,65.0246218 379.732344,65.1161966 379.845318,65.1161966 C380.890296,65.1161966 382.217271,66.2201218 382.217271,67.6093857 C382.217271,67.722368 382.30884,67.8139353 382.42182,67.8139353 C382.5348,67.8139353 382.62637,67.722369 382.62637,67.6093987 C382.62637,65.9800423 381.123159,64.7071104 379.845318,64.7071104 Z" id="Combined-Shape"></path>
            </g>
        </g>
    </g>
</svg>
